<svg width="254" height="64" viewBox="0 0 254 64" fill="none" xmlns="http://www.w3.org/2000/svg">
<path d="M22.0347 41.2437C22.509 43.2871 23.4631 45.2487 24.7289 47.1653C25.421 48.2126 26.702 47.7665 27.003 46.5473C27.2627 45.8751 27.417 45.0967 27.4865 44.287" fill="white"/>
<path d="M40.6264 18.078C40.0963 18.2353 39.8648 20.6874 39.9007 21.533C40.0015 23.8583 43.9325 23.895 42.0763 26.4219C34.0585 35.4664 21.9149 23.5314 15.7015 29.2185C14.7512 37.9544 28.5791 50.1873 39.3751 42.9028C45.6436 38.6732 47.3654 31.6011 47.8406 27.5517C48.1774 26.6763 48.9597 26.48 50.3492 26.1019C54.3161 24.9866 54.0953 22.8171 54.1327 19.8937C52.3307 22.0762 50.3843 21.2687 48.9207 21.2137C48.0758 21.2107 47.2547 22.164 46.7383 22.5849C46.6695 22.1037 46.5656 21.4574 46.1027 20.9212C44.9531 19.5889 42.3238 20.3406 41.2138 18.7234C41.0366 18.3148 40.8777 18.1184 40.7379 18.078C40.7018 18.0671 40.6633 18.0671 40.6272 18.078H40.6264Z" fill="white"/>
<path d="M48.5417 26.9023L48.3813 26.952L47.7626 28.0749C47.7664 28.0444 47.774 28.0062 47.7778 27.9764V27.9458C47.7633 28.0092 47.7458 28.068 47.732 28.1314L46.6335 30.1298C46.3613 31.3537 45.9966 32.5551 45.5427 33.7239C41.3138 40.5217 33.5 39.67 28.3254 36.2271C25.4425 34.309 21.6872 30.6714 19.2244 30.3681C17.605 30.1695 15.8022 31.145 16.12 32.766L15.5601 33.7514C16.7303 37.1216 19.3803 40.3819 22.7192 42.6889C27.589 46.0546 34.134 47.3646 39.8219 43.5276C46.1469 39.259 47.9856 32.3122 48.5417 28.0963V26.9023Z" fill="#D0CFCE"/>
<path d="M32.416 38.1873C32.8148 42.4795 35.1087 45.6398 38.5309 48.3027C39.5225 49.0742 40.5912 48.24 40.4865 46.9888C40.6301 43.6582 38.4515 38.8373 36.127 38.8335" fill="white"/>
<path d="M19.8613 17.5723C19.3917 17.5279 18.9183 17.5938 18.4787 17.7648C17.5834 18.1101 16.7714 18.819 16.0105 19.8196C15.9452 19.8991 15.8965 19.9909 15.8675 20.0895C15.8384 20.1882 15.8296 20.2918 15.8416 20.3939C15.8536 20.4961 15.886 20.5948 15.9371 20.6841C15.9881 20.7734 16.0566 20.8515 16.1386 20.9137C16.2205 20.9758 16.3142 21.0208 16.4139 21.0459C16.5137 21.071 16.6175 21.0757 16.7191 21.0597C16.8207 21.0437 16.918 21.0074 17.0052 20.9529C17.0925 20.8983 17.1678 20.8268 17.2267 20.7424C17.8744 19.8907 18.5153 19.388 19.0294 19.1894C19.5428 18.9908 19.9048 19.0283 20.3311 19.3101C21.1844 19.8754 22.1889 21.8531 22.5097 25.4212C22.5174 25.5221 22.5451 25.6203 22.591 25.7104C22.637 25.8004 22.7004 25.8805 22.7776 25.9458C22.8547 26.0112 22.944 26.0606 23.0404 26.0912C23.1368 26.1217 23.2383 26.1329 23.339 26.1239C23.4397 26.115 23.5376 26.0861 23.6271 26.039C23.7166 25.9919 23.7958 25.9276 23.8602 25.8496C23.9246 25.7717 23.9729 25.6817 24.0023 25.585C24.0317 25.4882 24.0416 25.3866 24.0314 25.286C23.6914 21.5094 22.7786 19.0985 21.176 18.0367C20.7824 17.7768 20.3309 17.6175 19.8613 17.573V17.5723ZM29.0486 16.6304C28.5987 16.5969 28.1468 16.6565 27.721 16.8053C25.9732 17.4149 24.7342 19.4484 24.5905 22.7683C24.585 22.8692 24.5995 22.9703 24.6332 23.0656C24.667 23.1609 24.7193 23.2485 24.7872 23.3234C24.8551 23.3983 24.9372 23.459 25.0287 23.502C25.1203 23.5449 25.2194 23.5693 25.3204 23.5736C25.4214 23.578 25.5223 23.5622 25.6172 23.5273C25.712 23.4924 25.799 23.439 25.8731 23.3702C25.9472 23.3014 26.0069 23.2185 26.0487 23.1265C26.0905 23.0344 26.1137 22.935 26.1168 22.834C26.2451 19.8571 27.2787 18.5783 28.2251 18.2476C29.1716 17.9176 30.3625 18.3927 31.2073 19.7646C31.2589 19.8521 31.3274 19.9285 31.4088 19.9892C31.4902 20.0499 31.5829 20.0938 31.6814 20.1183C31.78 20.1428 31.8824 20.1473 31.9828 20.1317C32.0831 20.1162 32.1794 20.0807 32.2659 20.0275C32.3524 19.9743 32.4274 19.9043 32.4865 19.8218C32.5457 19.7392 32.5877 19.6457 32.6103 19.5467C32.6329 19.4477 32.6355 19.3451 32.6179 19.2451C32.6004 19.1451 32.5631 19.0495 32.5083 18.9641C31.6718 17.6044 30.3793 16.7274 29.0486 16.6312V16.6304ZM23.0437 14.561C22.924 14.5626 22.8063 14.5923 22.7002 14.6477C22.594 14.703 22.5024 14.7826 22.4327 14.8799C22.363 14.9772 22.3171 15.0896 22.2987 15.2079C22.2804 15.3262 22.2901 15.4471 22.3271 15.561C22.5067 16.1415 22.6938 16.5754 22.7274 17.311C22.7367 17.5134 22.8261 17.7038 22.9758 17.8404C23.1255 17.9769 23.3233 18.0483 23.5257 18.039C23.7281 18.0297 23.9185 17.9404 24.055 17.7907C24.1915 17.641 24.263 17.4432 24.2537 17.2408C24.2078 16.263 23.9351 15.5923 23.7869 15.1103C23.7399 14.9502 23.6418 14.81 23.5076 14.711C23.3734 14.6119 23.2104 14.5595 23.0437 14.5618V14.561ZM41.0531 37.1034C40.9332 37.1019 40.8147 37.1285 40.7071 37.1813C39.2794 37.852 37.7294 38.1217 36.1535 38.072C36.0532 38.0688 35.9533 38.0855 35.8594 38.1209C35.7655 38.1564 35.6795 38.21 35.6063 38.2787C35.5332 38.3474 35.4742 38.4299 35.4329 38.5213C35.3916 38.6128 35.3687 38.7115 35.3656 38.8118C35.3624 38.9122 35.379 39.0121 35.4145 39.106C35.45 39.1999 35.5036 39.2859 35.5723 39.359C35.641 39.4322 35.7234 39.4911 35.8149 39.5324C35.9064 39.5737 36.0051 39.5966 36.1054 39.5998C37.8891 39.6563 39.688 39.3477 41.3571 38.5624C41.515 38.4906 41.6436 38.3672 41.722 38.2125C41.8004 38.0578 41.8238 37.8811 41.7885 37.7114C41.7531 37.5416 41.661 37.3889 41.5274 37.2784C41.3937 37.168 41.2265 37.1062 41.0531 37.1034Z" fill="white"/>
<path d="M32.409 37.4119C32.3023 37.4128 32.197 37.436 32.0998 37.48C32.0026 37.5241 31.9158 37.588 31.8448 37.6677C31.7739 37.7473 31.7204 37.841 31.6878 37.9426C31.6553 38.0442 31.6443 38.1515 31.6558 38.2575C32.0759 42.7843 34.5387 46.1645 38.0617 48.9061C38.7676 49.4546 39.7293 49.476 40.3626 49.0268C40.989 48.5822 41.3037 47.7985 41.2426 46.9559C41.3075 45.1226 40.7804 43.0372 39.9149 41.3184C39.4772 40.4514 38.954 39.6791 38.3367 39.0902C37.7187 38.5004 36.9732 38.0727 36.1291 38.0711C35.9265 38.0706 35.732 38.1506 35.5884 38.2935C35.4448 38.4364 35.3638 38.6305 35.3633 38.8331C35.3628 39.0357 35.4428 39.2302 35.5857 39.3738C35.7286 39.5174 35.9227 39.5984 36.1253 39.5989C36.4423 39.5989 36.8418 39.7746 37.2818 40.1947C37.7218 40.6141 38.1702 41.255 38.5499 42.0082C39.3092 43.5146 39.7881 45.4732 39.724 46.9574C39.7224 46.9898 39.7229 47.0222 39.7255 47.0545C39.7591 47.4502 39.6002 47.6954 39.478 47.7824C39.3558 47.8695 39.2855 47.9238 39.0005 47.7015C35.6776 45.1165 33.554 42.174 33.1774 38.1162C33.1623 37.9233 33.0746 37.7433 32.932 37.6126C32.7893 37.4819 32.6024 37.4101 32.409 37.4119Z" fill="white"/>
<path d="M19.3167 29.6096C18.316 29.4866 17.2946 29.7089 16.4956 30.2642C15.6966 30.8196 15.1397 31.8424 15.3765 32.9577C15.3974 33.0559 15.4374 33.149 15.4942 33.2317C15.5511 33.3144 15.6236 33.3851 15.7078 33.4397C15.792 33.4944 15.8861 33.5319 15.9847 33.5502C16.0834 33.5685 16.1847 33.5672 16.2829 33.5463C16.381 33.5254 16.4741 33.4854 16.5568 33.4286C16.6395 33.3717 16.7102 33.2992 16.7649 33.215C16.8195 33.1308 16.8571 33.0367 16.8754 32.9381C16.8936 32.8394 16.8923 32.7381 16.8714 32.6399C16.7592 32.1128 16.9364 31.8188 17.3664 31.5193C17.7965 31.2199 18.4993 31.048 19.1303 31.1251C20.0401 31.2374 21.5823 32.1381 23.1636 33.3053C24.7448 34.4725 26.4025 35.8643 27.9012 36.8619C29.2149 37.7364 30.6442 38.4234 32.1477 38.9031C32.2438 38.9354 32.3454 38.9482 32.4465 38.9408C32.5477 38.9335 32.6463 38.9061 32.7367 38.8602C32.8272 38.8143 32.9075 38.7509 32.9732 38.6736C33.0389 38.5963 33.0885 38.5067 33.1191 38.4101C33.1498 38.3134 33.161 38.2116 33.1519 38.1106C33.1428 38.0097 33.1137 37.9115 33.0663 37.8218C33.0189 37.7322 32.9541 37.6529 32.8758 37.5886C32.7974 37.5242 32.707 37.4761 32.6098 37.4471C31.2431 37.0104 29.9438 36.3856 28.7492 35.5908C27.365 34.6703 25.7043 33.2839 24.0703 32.0769C22.4364 30.87 20.8689 29.8006 19.3167 29.6096Z" fill="white"/>
<path d="M40.9699 17.3408C40.7927 17.2911 40.6052 17.2917 40.4283 17.3424C40.2481 17.3963 40.0941 17.5149 39.9959 17.6754C39.9539 17.7235 39.86 17.7572 39.8279 17.803C39.7156 17.9687 39.6453 18.1315 39.5834 18.3018C39.4612 18.6433 39.3795 19.0244 39.3153 19.4224C39.187 20.2169 39.1343 21.0388 39.1572 21.5628C39.1916 22.3588 39.5804 22.9959 40.0105 23.4458C40.4413 23.8965 40.9141 24.212 41.2609 24.4924C41.6077 24.7712 41.7812 24.9927 41.8155 25.1187C41.8491 25.2394 41.8407 25.4495 41.4924 25.9376C39.6148 28.0399 37.5859 28.8862 35.3866 29.1108C33.1759 29.3369 30.7918 28.8977 28.4078 28.3317C26.0229 27.7664 23.6487 27.0766 21.3983 26.8894C19.1471 26.7023 16.9464 27.056 15.2032 28.6517C15.0667 28.7769 14.9804 28.9474 14.9603 29.1315C14.5531 32.8715 16.5591 36.9651 19.7361 40.1872C22.9131 43.4093 27.3192 45.7881 31.9598 45.8812C32.0601 45.8833 32.1599 45.8655 32.2533 45.8289C32.3468 45.7924 32.4321 45.7378 32.5045 45.6683C32.5768 45.5988 32.6348 45.5157 32.675 45.4238C32.7152 45.3319 32.737 45.233 32.739 45.1326C32.741 45.0323 32.7232 44.9326 32.6867 44.8391C32.6502 44.7457 32.5956 44.6604 32.5261 44.588C32.4566 44.5157 32.3735 44.4577 32.2816 44.4175C32.1896 44.3772 32.0907 44.3555 31.9904 44.3535C27.8562 44.2717 23.7656 42.1 20.8231 39.1162C17.9845 36.2364 16.3146 32.6408 16.4964 29.6394C17.8126 28.5654 19.3633 28.2537 21.2707 28.4126C23.295 28.5807 25.6226 29.2445 28.0541 29.8212C30.4832 30.398 33.027 30.8907 35.5432 30.6325C38.0587 30.3751 40.5421 29.3217 42.6657 26.9269C42.6816 26.9097 42.6966 26.8919 42.7108 26.8734C43.2509 26.137 43.4716 25.3792 43.2875 24.7139C43.1042 24.0493 42.6359 23.6406 42.2196 23.3045C41.8033 22.9684 41.3908 22.6819 41.1143 22.3924C40.837 22.1029 40.6987 21.8638 40.6827 21.4972C40.6689 21.1763 40.7132 20.349 40.8232 19.6669C40.8416 19.5523 40.8691 19.4881 40.8905 19.3835C41.6383 20.2069 42.6581 20.5117 43.5159 20.6767C44.4746 20.8608 45.2018 21.0235 45.5425 21.4177C45.8443 21.7676 45.9321 22.2213 45.9986 22.6911C46.0177 22.8252 46.0721 22.9517 46.1562 23.0578C46.2403 23.1639 46.3511 23.2458 46.4773 23.295C46.6034 23.3442 46.7404 23.359 46.8741 23.3378C47.0078 23.3167 47.1336 23.2604 47.2384 23.1747C47.5623 22.9103 47.8724 22.588 48.1902 22.342C48.508 22.096 48.7967 21.9769 48.9319 21.9761C49.5354 22.0021 50.4291 22.2267 51.4711 22.1518C52.0692 22.1098 52.7078 21.8822 53.3411 21.517C53.3059 22.2412 53.2357 22.8882 53.0286 23.374C52.678 24.199 52.0157 24.843 50.1595 25.3647C49.4712 25.5519 48.8983 25.6932 48.3758 25.9552C47.851 26.218 47.3774 26.671 47.1444 27.276C47.122 27.3355 47.1071 27.3976 47.1001 27.4608C46.7151 30.7379 45.4784 36.0301 41.6345 40.023C41.5649 40.0953 41.5103 40.1806 41.4737 40.2741C41.4371 40.3675 41.4193 40.4673 41.4212 40.5676C41.4232 40.6679 41.4448 40.7669 41.485 40.8589C41.5252 40.9508 41.5832 41.0339 41.6555 41.1035C41.7278 41.1731 41.8131 41.2277 41.9066 41.2643C42 41.3009 42.0998 41.3187 42.2001 41.3168C42.3004 41.3148 42.3994 41.2931 42.4914 41.2529C42.5833 41.2127 42.6664 41.1548 42.736 41.0825C46.8709 36.7856 48.1634 31.2757 48.5889 27.8053C48.6882 27.5571 48.7723 27.4654 49.0587 27.3218C49.3566 27.1728 49.87 27.0254 50.5674 26.8352C50.5692 26.8347 50.571 26.8342 50.5727 26.8337C52.6841 26.2401 53.8941 25.2417 54.4342 23.9722C54.9743 22.7026 54.8948 21.3406 54.9132 19.9006C54.9151 19.7426 54.868 19.5878 54.7782 19.4576C54.6885 19.3275 54.5606 19.2284 54.4122 19.174C54.2637 19.1196 54.1021 19.1126 53.9495 19.154C53.797 19.1953 53.661 19.283 53.5603 19.4049C52.7743 20.3567 52.1013 20.5759 51.3626 20.6286C50.6239 20.6821 49.8249 20.4804 48.9663 20.4483C48.9579 20.4477 48.9495 20.4472 48.9411 20.4468C48.2307 20.4437 47.6883 20.7997 47.2567 21.1343C47.2078 21.1725 47.1925 21.1931 47.1459 21.2313C47.0314 20.9594 46.9259 20.6836 46.6983 20.4201C45.8886 19.4812 44.7252 19.3537 43.8039 19.1772C42.8903 19.0015 42.238 18.8197 41.8713 18.2987C41.691 17.8748 41.5337 17.5066 40.9699 17.3416V17.3408Z" fill="white"/>
<path d="M22.0201 40.4707C21.9071 40.4756 21.7966 40.5054 21.6966 40.5582C21.5966 40.6109 21.5095 40.6852 21.4417 40.7757C21.3739 40.8662 21.327 40.9706 21.3044 41.0814C21.2819 41.1922 21.2842 41.3066 21.3112 41.4164C21.8123 43.5751 22.8107 45.6162 24.1116 47.5863C24.6051 48.3319 25.508 48.6611 26.2528 48.438C26.9861 48.218 27.5361 47.5787 27.7492 46.7636C28.0311 46.015 28.1961 45.1953 28.2687 44.3528C28.2861 44.1508 28.2226 43.9501 28.0921 43.795C27.9616 43.6398 27.7748 43.5429 27.5728 43.5255C27.3708 43.508 27.1702 43.5716 27.015 43.7021C26.8599 43.8326 26.7629 44.0194 26.7455 44.2214C26.6806 44.9776 26.5362 45.6888 26.3108 46.2717C26.299 46.3016 26.289 46.3322 26.281 46.3633C26.1856 46.7498 25.9579 46.9309 25.8143 46.9744C25.6707 47.018 25.5867 47.0455 25.3873 46.7445C24.1559 44.8806 23.2469 42.9992 22.7992 41.0703C22.7607 40.8947 22.6615 40.7382 22.519 40.6285C22.3764 40.5188 22.1998 40.4629 22.0201 40.4707Z" fill="white"/>
<circle cx="32" cy="32" r="30" stroke="white" stroke-width="4"/>
<path d="M104.232 8.2H91.032V25H95.352V20.512H104.232C108.048 20.512 110.664 18.112 110.664 14.368C110.664 10.624 108.048 8.2 104.232 8.2ZM103.032 16.888H95.352V11.824H103.032C104.328 11.824 106.344 11.824 106.344 14.368C106.344 16.888 104.328 16.888 103.032 16.888ZM112.477 5.8V9.376H116.581V5.8H112.477ZM112.477 10.864V25H116.581V10.864H112.477ZM118.144 20.032C118.144 24.544 123.184 25.24 128.632 25.24C134.08 25.24 137.68 24.544 137.68 20.56C137.68 16.792 133.912 16.648 128.392 16.24C123.52 15.88 122.776 15.736 122.776 14.848C122.776 14.032 123.88 13.744 127.768 13.744C131.584 13.744 133.072 14.032 133.072 15.208H137.2C137.2 11.32 133.336 10.624 128.008 10.624C122.968 10.624 118.648 11.32 118.648 15.016C118.648 18.424 121.696 18.904 127.912 19.264C132.88 19.576 133.552 19.648 133.552 20.728C133.552 21.832 132.832 22.12 128.392 22.12C123.808 22.12 122.248 21.544 122.248 20.032H118.144ZM138.862 17.944C138.862 23.128 142.798 25.24 148.654 25.24C153.934 25.24 157.654 23.512 158.326 19.36H154.126C153.574 21.184 151.63 21.808 148.654 21.808C145.126 21.808 142.966 20.872 142.966 17.944C142.966 14.992 145.126 14.056 148.654 14.056C151.63 14.056 153.574 14.68 154.126 16.504H158.326C157.654 12.352 153.934 10.624 148.654 10.624C142.798 10.624 138.862 12.736 138.862 17.944ZM159.891 5.8V9.376H163.995V5.8H159.891ZM159.891 10.864V25H163.995V10.864H159.891ZM165.558 20.032C165.558 24.544 170.598 25.24 176.046 25.24C181.494 25.24 185.094 24.544 185.094 20.56C185.094 16.792 181.326 16.648 175.806 16.24C170.934 15.88 170.19 15.736 170.19 14.848C170.19 14.032 171.294 13.744 175.182 13.744C178.998 13.744 180.486 14.032 180.486 15.208H184.614C184.614 11.32 180.75 10.624 175.422 10.624C170.382 10.624 166.062 11.32 166.062 15.016C166.062 18.424 169.11 18.904 175.326 19.264C180.294 19.576 180.966 19.648 180.966 20.728C180.966 21.832 180.246 22.12 175.806 22.12C171.222 22.12 169.662 21.544 169.662 20.032H165.558ZM109.2 54H113.976L105.288 37.2H99.456L90.792 54H95.544L97.344 50.424H107.4L109.2 54ZM98.952 47.208L102.384 40.392L105.792 47.208H98.952ZM129.076 39.864V42.048C127.54 40.464 125.092 39.624 122.044 39.624C117.484 39.624 113.62 41.544 113.62 46.944C113.62 52.344 117.484 54.24 122.044 54.24C125.092 54.24 127.54 53.424 129.076 51.816V60H133.204V39.864H129.076ZM123.412 50.808C119.74 50.808 117.724 49.728 117.724 46.944C117.724 44.136 119.74 43.056 123.412 43.056C127.084 43.056 129.076 44.136 129.076 46.944C129.076 49.728 127.084 50.808 123.412 50.808ZM150.811 39.864V47.784C149.539 49.272 146.563 50.688 143.803 50.688C140.419 50.688 139.411 49.128 139.411 46.128V39.864H135.283L135.235 47.688C135.283 52.896 138.811 54.24 142.579 54.24C146.011 54.24 148.795 53.112 150.811 51.528V54H154.915V39.864H150.811ZM166.585 39.624C163.633 39.624 160.801 40.152 157.921 41.088L159.385 44.088C162.289 43.224 164.545 43.056 166.393 43.056C168.313 43.056 171.769 43.272 171.769 45.96C169.921 45.336 167.689 44.952 165.265 44.952C160.777 44.952 156.745 46.104 156.745 49.776C156.745 52.968 159.217 54.24 163.177 54.24C166.513 54.24 169.273 53.472 171.769 52.248V54H175.897V46.872C175.849 41.52 172.489 39.624 166.585 39.624ZM171.769 49.608C169.657 50.52 166.585 51.216 164.353 51.216C162.217 51.216 160.849 51.096 160.849 49.608C160.849 48.168 162.697 47.64 165.769 47.64C168.385 47.64 170.329 48.048 171.769 48.504V49.608ZM189.079 39.624C186.439 39.624 183.943 40.368 181.831 42.264V39.864H177.727V54H181.831V45.528C184.327 43.584 186.967 43.056 189.271 43.056C190.471 43.056 191.551 43.2 192.895 43.536V40.104C191.935 39.864 190.759 39.624 189.079 39.624ZM194.579 34.8V38.376H198.683V34.8H194.579ZM194.579 39.864V54H198.683V39.864H194.579ZM216.154 39.864V47.784C214.882 49.272 211.906 50.688 209.146 50.688C205.762 50.688 204.754 49.128 204.754 46.128V39.864H200.626L200.578 47.688C200.626 52.896 204.154 54.24 207.922 54.24C211.354 54.24 214.138 53.112 216.154 51.528V54H220.258V39.864H216.154ZM246.716 39.624C243.212 39.624 240.692 40.848 238.868 42.216C237.788 40.248 235.772 39.624 233.636 39.624C230.132 39.624 227.828 40.944 226.292 42.168V39.864H222.188V54H226.292V45.672C227.468 44.4 229.772 43.176 232.148 43.176C235.076 43.176 235.58 44.736 235.58 47.736V54H239.684L239.732 46.08C239.732 45.816 239.732 45.576 239.708 45.336C240.956 44.208 243.068 43.176 245.228 43.176C248.156 43.176 248.66 44.736 248.66 47.736V54H252.764L252.812 46.08C252.764 40.968 249.884 39.624 246.716 39.624Z" fill="white"/>
</svg>
