<svg width="128" height="128" viewBox="0 0 128 128" fill="none" xmlns="http://www.w3.org/2000/svg">
<path d="M46.3354 75.3828C47.1362 78.8319 48.7466 82.143 50.8831 85.3781C52.0513 87.1458 54.2135 86.3928 54.7216 84.335C55.1599 83.2003 55.4204 81.8864 55.5377 80.5197" fill="#F7FFF7"/>
<path d="M77.7164 36.2811C76.8215 36.5467 76.4309 40.6856 76.4915 42.1129C76.6617 46.0378 83.2968 46.0997 80.1636 50.3649C66.6303 65.6312 46.1331 45.4859 35.6453 55.0854C34.0413 69.8307 57.3816 90.4788 75.6044 78.1833C86.185 71.044 89.0912 59.1069 89.8932 52.2719C90.4619 50.7943 91.7822 50.4629 94.1276 49.8247C100.823 47.9422 100.451 44.2804 100.514 39.3459C97.4722 43.0297 94.1869 41.6668 91.7164 41.574C90.2904 41.5688 88.9043 43.178 88.0327 43.8884C87.9166 43.0761 87.7413 41.9853 86.9599 41.0801C85.0194 38.8315 80.5814 40.1002 78.7079 37.3706C78.4088 36.6808 78.1406 36.3494 77.9046 36.2811C77.8436 36.2628 77.7786 36.2628 77.7177 36.2811H77.7164Z" fill="#F7FFF7"/>
<path d="M91.0769 51.176L90.8061 51.2598L89.7617 53.1552C89.7682 53.1036 89.7811 53.0392 89.7875 52.9889V52.9373C89.763 53.0443 89.7333 53.1436 89.7101 53.2506L87.856 56.6236C87.3965 58.6895 86.781 60.7174 86.0148 62.6902C78.8768 74.1643 65.6878 72.7267 56.9535 66.9155C52.0874 63.6778 45.7488 57.5378 41.5919 57.0259C38.8584 56.6907 35.8155 58.3372 36.3519 61.0733L35.4067 62.7366C37.3821 68.4253 41.8549 73.9284 47.4908 77.8223C55.7106 83.5033 66.7579 85.7146 76.3586 79.238C87.0347 72.033 90.1382 60.3074 91.0769 53.1913V51.176Z" fill="#D0CFCE"/>
<path d="M63.8582 70.2239C64.5312 77.4689 68.4032 82.803 74.1796 87.2978C75.8532 88.6001 77.6571 87.1921 77.4804 85.0801C77.7228 79.4584 74.0455 71.3211 70.1219 71.3147" fill="#F7FFF7"/>
<path d="M42.6672 35.4275C41.8746 35.3526 41.0754 35.4638 40.3334 35.7524C38.8223 36.3352 37.4516 37.5317 36.1674 39.2208C36.0571 39.3548 35.975 39.5098 35.926 39.6764C35.877 39.8429 35.8621 40.0177 35.8823 40.1901C35.9025 40.3626 35.9573 40.5292 36.0434 40.6799C36.1295 40.8307 36.2452 40.9625 36.3835 41.0674C36.5218 41.1724 36.6799 41.2483 36.8483 41.2907C37.0167 41.333 37.1919 41.3409 37.3634 41.314C37.5349 41.287 37.6992 41.2256 37.8464 41.1336C37.9936 41.0415 38.1207 40.9207 38.2201 40.7784C39.3135 39.3407 40.3953 38.4923 41.263 38.1571C42.1295 37.8218 42.7407 37.885 43.4601 38.3608C44.9004 39.3149 46.5959 42.6531 47.1375 48.6758C47.1505 48.846 47.1971 49.0119 47.2747 49.1638C47.3523 49.3158 47.4593 49.4509 47.5895 49.5612C47.7197 49.6716 47.8706 49.7549 48.0332 49.8065C48.1959 49.8581 48.3672 49.8769 48.5372 49.8618C48.7072 49.8467 48.8725 49.798 49.0235 49.7186C49.1745 49.6391 49.3083 49.5304 49.417 49.3989C49.5257 49.2673 49.6072 49.1155 49.6568 48.9522C49.7064 48.7889 49.7231 48.6174 49.7059 48.4476C49.1321 42.0729 47.5913 38.0036 44.8862 36.2114C44.2219 35.7726 43.4598 35.5038 42.6672 35.4287V35.4275ZM58.1745 33.8377C57.4152 33.7811 56.6524 33.8817 55.9336 34.1329C52.9835 35.1618 50.8921 38.5942 50.6497 44.1978C50.6403 44.3682 50.6648 44.5388 50.7218 44.6996C50.7788 44.8605 50.8671 45.0084 50.9817 45.1349C51.0963 45.2613 51.2349 45.3638 51.3894 45.4363C51.5438 45.5088 51.7112 45.5499 51.8817 45.5572C52.0522 45.5645 52.2224 45.538 52.3826 45.479C52.5427 45.42 52.6896 45.3299 52.8146 45.2138C52.9396 45.0976 53.0404 44.9578 53.111 44.8024C53.1816 44.6471 53.2206 44.4793 53.2259 44.3087C53.4425 39.284 55.187 37.1256 56.7846 36.5673C58.3821 36.0103 60.3922 36.8122 61.8183 39.128C61.9053 39.2757 62.0209 39.4045 62.1583 39.507C62.2957 39.6095 62.4521 39.6836 62.6185 39.7249C62.7849 39.7662 62.9578 39.7739 63.1272 39.7476C63.2966 39.7213 63.459 39.6615 63.605 39.5716C63.751 39.4818 63.8776 39.3637 63.9774 39.2244C64.0772 39.085 64.1483 38.9272 64.1864 38.76C64.2245 38.5929 64.2288 38.4199 64.1993 38.251C64.1697 38.0822 64.1067 37.9209 64.0141 37.7767C62.6022 35.4816 60.4206 34.0014 58.1745 33.8389V33.8377ZM48.0387 30.3447C47.8367 30.3474 47.6381 30.3974 47.4589 30.4909C47.2798 30.5844 47.1252 30.7187 47.0075 30.883C46.8898 31.0472 46.8123 31.2368 46.7814 31.4365C46.7504 31.6362 46.7668 31.8404 46.8293 32.0325C47.1323 33.0124 47.4482 33.7448 47.5049 34.9865C47.5207 35.3281 47.6714 35.6495 47.9241 35.8799C48.1768 36.1104 48.5107 36.231 48.8523 36.2153C49.1939 36.1995 49.5153 36.0487 49.7458 35.796C49.9762 35.5434 50.0968 35.2095 50.0811 34.8679C50.0037 33.2175 49.5434 32.0854 49.2933 31.2718C49.2139 31.0017 49.0483 30.765 48.8218 30.5978C48.5953 30.4306 48.3202 30.3422 48.0387 30.346V30.3447ZM78.4371 68.3943C78.2348 68.3917 78.0347 68.4367 77.853 68.5258C75.4431 69.6578 72.827 70.113 70.167 70.0292C69.9977 70.0238 69.829 70.0519 69.6705 70.1118C69.512 70.1717 69.3669 70.2622 69.2434 70.3781C69.1199 70.4941 69.0204 70.6332 68.9507 70.7876C68.881 70.942 68.8424 71.1086 68.837 71.2779C68.8317 71.4473 68.8598 71.616 68.9196 71.7745C68.9795 71.9329 69.07 72.0781 69.186 72.2016C69.3019 72.3251 69.4411 72.4245 69.5955 72.4942C69.7498 72.564 69.9165 72.6026 70.0858 72.6079C73.0965 72.7033 76.133 72.1824 78.9503 70.857C79.2166 70.7357 79.4338 70.5274 79.5661 70.2663C79.6985 70.0053 79.738 69.707 79.6783 69.4204C79.6186 69.1339 79.4632 68.8762 79.2376 68.6897C79.012 68.5032 78.7297 68.399 78.4371 68.3943V68.3943Z" fill="#F7FFF7"/>
<path d="M63.8465 68.9151C63.6664 68.9166 63.4887 68.9558 63.3247 69.0301C63.1607 69.1045 63.0141 69.2124 62.8943 69.3468C62.7745 69.4813 62.6843 69.6394 62.6293 69.8108C62.5743 69.9823 62.5559 70.1634 62.5752 70.3424C63.2843 77.9833 67.4413 83.6888 73.3879 88.3164C74.5793 89.2421 76.2026 89.2782 77.2715 88.5201C78.3288 87.7697 78.86 86.4468 78.7568 85.0246C78.8664 81.9301 77.9768 78.4101 76.5159 75.509C75.7771 74.0455 74.8939 72.742 73.8521 71.7479C72.8089 70.7525 71.5505 70.0304 70.1258 70.0278C69.7838 70.027 69.4555 70.162 69.2131 70.4032C68.9707 70.6444 68.834 70.972 68.8332 71.314C68.8323 71.6559 68.9673 71.9842 69.2085 72.2267C69.4497 72.4691 69.7773 72.6057 70.1193 72.6066C70.6544 72.6066 71.3287 72.9031 72.0714 73.6123C72.8141 74.3202 73.571 75.4019 74.2118 76.6733C75.4934 79.2159 76.3019 82.5219 76.1936 85.0271C76.191 85.0817 76.1918 85.1364 76.1961 85.1909C76.2529 85.8588 75.9847 86.2727 75.7784 86.4197C75.5721 86.5667 75.4535 86.6582 74.9725 86.283C69.3637 81.9198 65.7793 76.9531 65.1436 70.1039C65.1181 69.7783 64.9701 69.4745 64.7293 69.2539C64.4886 69.0332 64.173 68.9121 63.8465 68.9151V68.9151Z" fill="#F7FFF7"/>
<path d="M41.7478 55.7455C40.0587 55.5379 38.3348 55.9131 36.9861 56.8505C35.6374 57.7879 34.6975 59.5144 35.0972 61.3969C35.1324 61.5625 35.1999 61.7197 35.2959 61.8593C35.3918 61.9988 35.5143 62.1182 35.6564 62.2104C35.7984 62.3027 35.9573 62.366 36.1238 62.3969C36.2904 62.4278 36.4614 62.4255 36.627 62.3903C36.7927 62.3551 36.9499 62.2876 37.0894 62.1917C37.229 62.0957 37.3484 61.9732 37.4406 61.8311C37.5329 61.6891 37.5962 61.5303 37.6271 61.3637C37.658 61.1972 37.6557 61.0262 37.6205 60.8605C37.431 59.9708 37.7301 59.4744 38.456 58.969C39.1819 58.4635 40.3682 58.1734 41.4332 58.3036C42.9688 58.4932 45.5721 60.0134 48.2411 61.9835C50.9101 63.9537 53.7081 66.3029 56.2378 67.9869C58.4552 69.4629 60.8677 70.6225 63.4055 71.4321C63.5677 71.4866 63.7392 71.5083 63.9099 71.4959C64.0806 71.4834 64.2471 71.4371 64.3997 71.3597C64.5524 71.2822 64.688 71.1752 64.7989 71.0447C64.9097 70.9143 64.9934 70.7631 65.0452 70.6C65.097 70.4368 65.1158 70.265 65.1005 70.0946C65.0852 69.9241 65.0361 69.7584 64.956 69.6071C64.876 69.4558 64.7667 69.3219 64.6344 69.2133C64.5021 69.1047 64.3495 69.0235 64.1856 68.9745C61.8786 68.2374 59.6854 67.1829 57.669 65.8413C55.3327 64.2876 52.5296 61.9474 49.7716 59.9102C47.0136 57.873 44.3678 56.0679 41.7478 55.7455V55.7455Z" fill="#F7FFF7"/>
<path d="M78.2965 35.0369C77.9975 34.953 77.681 34.9539 77.3824 35.0394C77.0782 35.1306 76.8183 35.3307 76.6526 35.6016C76.5817 35.6828 76.4231 35.7396 76.3689 35.8169C76.1794 36.0967 76.0608 36.3714 75.9563 36.6589C75.75 37.2352 75.6121 37.8786 75.5038 38.5504C75.2871 39.8914 75.1982 41.2787 75.2369 42.1632C75.2949 43.5068 75.9512 44.5821 76.6771 45.3416C77.4043 46.1023 78.2024 46.6348 78.7878 47.108C79.3732 47.5786 79.6659 47.9525 79.7239 48.1653C79.7806 48.369 79.7664 48.7236 79.1785 49.5475C76.0092 53.0959 72.5846 54.5245 68.8725 54.9036C65.141 55.2852 61.1169 54.5438 57.0927 53.5884C53.0673 52.6343 49.0599 51.47 45.2614 51.1541C41.4616 50.8382 37.7469 51.4352 34.8046 54.1287C34.5743 54.34 34.4286 54.6277 34.3945 54.9384C33.7073 61.2512 37.0932 68.161 42.4557 73.5995C47.8182 79.0381 55.2554 83.0533 63.0883 83.2106C63.2577 83.2139 63.426 83.1839 63.5837 83.1223C63.7415 83.0606 63.8855 82.9685 64.0076 82.8511C64.1297 82.7338 64.2276 82.5936 64.2955 82.4384C64.3634 82.2833 64.4001 82.1163 64.4035 81.947C64.4069 81.7776 64.3769 81.6093 64.3152 81.4516C64.2536 81.2939 64.1614 81.1498 64.0441 81.0277C63.9268 80.9056 63.7865 80.8077 63.6314 80.7398C63.4762 80.6719 63.3092 80.6352 63.1399 80.6318C56.1618 80.4938 49.2572 76.8281 44.2905 71.7918C39.4992 66.9309 36.6806 60.8618 36.9875 55.7958C39.2091 53.983 41.8265 53.4569 45.0461 53.7251C48.4629 54.0087 52.3917 55.1292 56.4958 56.1027C60.596 57.0762 64.8896 57.9078 69.1368 57.472C73.3827 57.0375 77.5745 55.2594 81.159 51.2172C81.1857 51.1883 81.2111 51.1582 81.235 51.127C82.1466 49.884 82.5193 48.605 82.2085 47.4819C81.8991 46.3602 81.1087 45.6703 80.406 45.103C79.7033 44.5357 79.007 44.0522 78.5402 43.5635C78.0722 43.0748 77.8388 42.6713 77.8117 42.0524C77.7885 41.5108 77.8633 40.1144 78.049 38.963C78.0799 38.7696 78.1263 38.6613 78.1624 38.4846C79.4247 39.8746 81.1461 40.3891 82.594 40.6676C84.2122 40.9783 85.4397 41.2529 86.0148 41.9183C86.5241 42.5088 86.6723 43.2747 86.7845 44.0677C86.8168 44.2939 86.9086 44.5075 87.0506 44.6866C87.1925 44.8657 87.3796 45.0039 87.5925 45.0869C87.8054 45.17 88.0366 45.1949 88.2623 45.1592C88.488 45.1235 88.7002 45.0285 88.8772 44.8838C89.4239 44.4377 89.9474 43.8936 90.4837 43.4784C91.0201 43.0632 91.5075 42.8621 91.7357 42.8608C92.7543 42.9046 94.2629 43.2837 96.0216 43.1573C97.0312 43.0864 98.1091 42.7022 99.178 42.0859C99.1187 43.3082 99.0001 44.4003 98.6506 45.2204C98.0588 46.6129 96.9409 47.6998 93.8077 48.5805C92.646 48.8964 91.679 49.1349 90.7971 49.5772C89.9113 50.0207 89.1118 50.7853 88.7186 51.8065C88.6808 51.907 88.6556 52.0118 88.6438 52.1185C87.9939 57.65 85.9064 66.5828 79.4183 73.3223C79.3009 73.4444 79.2086 73.5884 79.1469 73.7462C79.0851 73.9039 79.055 74.0722 79.0583 74.2416C79.0616 74.4109 79.0982 74.578 79.1661 74.7332C79.2339 74.8884 79.3317 75.0287 79.4538 75.1462C79.5758 75.2636 79.7199 75.3558 79.8776 75.4176C80.0353 75.4793 80.2037 75.5094 80.373 75.5062C80.5424 75.5029 80.7094 75.4662 80.8646 75.3984C81.0198 75.3305 81.1602 75.2328 81.2776 75.1107C88.257 67.858 90.4386 58.5577 91.1568 52.7C91.3244 52.281 91.4662 52.1263 91.9498 51.8839C92.4526 51.6324 93.3191 51.3836 94.4963 51.0625C94.4993 51.0617 94.5023 51.0608 94.5053 51.0599C98.0691 50.0581 100.112 48.3729 101.023 46.2299C101.935 44.087 101.801 41.788 101.832 39.3576C101.835 39.0908 101.755 38.8295 101.604 38.6098C101.452 38.3902 101.236 38.2229 100.986 38.1311C100.735 38.0393 100.463 38.0275 100.205 38.0973C99.9475 38.167 99.718 38.315 99.5481 38.5208C98.2213 40.1273 97.0853 40.4974 95.8385 40.5863C94.5917 40.6766 93.243 40.3362 91.7937 40.282C91.7796 40.2809 91.7654 40.2801 91.7512 40.2795C90.5521 40.2743 89.6366 40.8752 88.9081 41.4399C88.8256 41.5044 88.7998 41.5392 88.7212 41.6036C88.5277 41.1446 88.3498 40.6792 87.9656 40.2343C86.5988 38.6497 84.6351 38.4344 83.0801 38.1365C81.538 37.84 80.4369 37.5331 79.818 36.6537C79.5137 35.9381 79.2481 35.3166 78.2965 35.0381V35.0369Z" fill="#F7FFF7"/>
<path d="M46.3109 74.0779C46.1202 74.0861 45.9338 74.1365 45.7649 74.2255C45.5961 74.3146 45.4492 74.44 45.3347 74.5927C45.2202 74.7454 45.1411 74.9216 45.103 75.1086C45.0649 75.2956 45.0688 75.4888 45.1144 75.6741C45.9602 79.3179 47.6454 82.7631 49.8412 86.0884C50.6742 87.3468 52.1982 87.9026 53.4554 87.5261C54.6932 87.1547 55.6215 86.0755 55.9812 84.6998C56.457 83.4362 56.7355 82.0527 56.858 80.6305C56.8874 80.2895 56.7802 79.9509 56.5599 79.689C56.3396 79.4271 56.0243 79.2635 55.6834 79.2341C55.3425 79.2047 55.0038 79.3119 54.7419 79.5322C54.4801 79.7525 54.3164 80.0678 54.287 80.4087C54.1774 81.6852 53.9337 82.8856 53.5533 83.8694C53.5333 83.9199 53.5165 83.9715 53.5031 84.0241C53.3419 84.6765 52.9577 84.9821 52.7152 85.0556C52.4728 85.1291 52.331 85.1755 51.9945 84.6675C49.916 81.5214 48.3817 78.3457 47.6261 75.09C47.5611 74.7935 47.3936 74.5294 47.153 74.3442C46.9124 74.1591 46.6142 74.0648 46.3109 74.0779V74.0779Z" fill="#F7FFF7"/>
<circle cx="64" cy="64" r="60" stroke="#F7FFF7" stroke-width="8"/>
</svg>
