<svg width="201" height="64" viewBox="0 0 201 64" fill="none" xmlns="http://www.w3.org/2000/svg">
<path d="M22.0348 41.2437C22.5092 43.2871 23.4633 45.2487 24.729 47.1653C25.4211 48.2126 26.7022 47.7665 27.0031 46.5473C27.2628 45.8751 27.4172 45.0967 27.4867 44.287" fill="#262626"/>
<path d="M40.6263 18.078C40.0961 18.2353 39.8647 20.6874 39.9006 21.533C40.0014 23.8583 43.9324 23.895 42.0761 26.4219C34.0584 35.4664 21.9148 23.5314 15.7013 29.2185C14.7511 37.9544 28.579 50.1873 39.375 42.9028C45.6435 38.6732 47.3653 31.6011 47.8404 27.5517C48.1773 26.6763 48.9595 26.48 50.3491 26.1019C54.3159 24.9866 54.0952 22.8171 54.1326 19.8937C52.3306 22.0762 50.3842 21.2687 48.9206 21.2137C48.0757 21.2107 47.2545 22.164 46.7382 22.5849C46.6694 22.1037 46.5655 21.4574 46.1026 20.9212C44.9529 19.5889 42.3236 20.3406 41.2137 18.7234C41.0365 18.3148 40.8776 18.1184 40.7378 18.078C40.7017 18.0671 40.6632 18.0671 40.627 18.078H40.6263Z" fill="#262626"/>
<path d="M48.5417 26.9023L48.3813 26.952L47.7626 28.0749C47.7664 28.0444 47.774 28.0062 47.7778 27.9764V27.9458C47.7633 28.0092 47.7458 28.068 47.732 28.1314L46.6335 30.1298C46.3613 31.3537 45.9966 32.5551 45.5427 33.7239C41.3138 40.5217 33.5 39.67 28.3254 36.2271C25.4425 34.309 21.6872 30.6714 19.2244 30.3681C17.605 30.1695 15.8022 31.145 16.12 32.766L15.5601 33.7514C16.7303 37.1216 19.3803 40.3819 22.7192 42.6889C27.589 46.0546 34.134 47.3646 39.8219 43.5276C46.1469 39.259 47.9856 32.3122 48.5417 28.0963V26.9023Z" fill="#D0CFCE"/>
<path d="M32.416 38.1873C32.8148 42.4795 35.1087 45.6398 38.5309 48.3027C39.5225 49.0742 40.5912 48.24 40.4865 46.9888C40.6301 43.6582 38.4515 38.8373 36.127 38.8335" fill="#262626"/>
<path d="M19.8614 17.5723C19.3918 17.5279 18.9184 17.5938 18.4788 17.7648C17.5835 18.1101 16.7715 18.819 16.0107 19.8196C15.9453 19.8991 15.8966 19.9909 15.8676 20.0895C15.8386 20.1882 15.8298 20.2918 15.8417 20.3939C15.8537 20.4961 15.8861 20.5948 15.9372 20.6841C15.9882 20.7734 16.0567 20.8515 16.1387 20.9137C16.2206 20.9758 16.3143 21.0208 16.414 21.0459C16.5138 21.071 16.6176 21.0757 16.7192 21.0597C16.8208 21.0437 16.9181 21.0074 17.0054 20.9529C17.0926 20.8983 17.1679 20.8268 17.2268 20.7424C17.8746 19.8907 18.5155 19.388 19.0296 19.1894C19.5429 18.9908 19.905 19.0283 20.3312 19.3101C21.1845 19.8754 22.189 21.8531 22.5098 25.4212C22.5175 25.5221 22.5452 25.6203 22.5912 25.7104C22.6371 25.8004 22.7005 25.8805 22.7777 25.9458C22.8548 26.0112 22.9442 26.0606 23.0405 26.0912C23.1369 26.1217 23.2384 26.1329 23.3391 26.1239C23.4398 26.115 23.5377 26.0861 23.6272 26.039C23.7167 25.9919 23.7959 25.9276 23.8603 25.8496C23.9247 25.7717 23.973 25.6817 24.0024 25.585C24.0318 25.4882 24.0417 25.3866 24.0315 25.286C23.6916 21.5094 22.7787 19.0985 21.1761 18.0367C20.7825 17.7768 20.331 17.6175 19.8614 17.573V17.5723ZM29.0487 16.6304C28.5989 16.5969 28.1469 16.6565 27.7211 16.8053C25.9733 17.4149 24.7343 19.4484 24.5907 22.7683C24.5851 22.8692 24.5996 22.9703 24.6334 23.0656C24.6671 23.1609 24.7195 23.2485 24.7874 23.3234C24.8552 23.3983 24.9373 23.459 25.0289 23.502C25.1204 23.5449 25.2195 23.5693 25.3205 23.5736C25.4215 23.578 25.5224 23.5622 25.6173 23.5273C25.7122 23.4924 25.7992 23.439 25.8732 23.3702C25.9473 23.3014 26.007 23.2185 26.0488 23.1265C26.0907 23.0344 26.1138 22.935 26.1169 22.834C26.2452 19.8571 27.2788 18.5783 28.2252 18.2476C29.1717 17.9176 30.3626 18.3927 31.2075 19.7646C31.259 19.8521 31.3275 19.9285 31.4089 19.9892C31.4903 20.0499 31.583 20.0938 31.6816 20.1183C31.7801 20.1428 31.8826 20.1473 31.9829 20.1317C32.0833 20.1162 32.1795 20.0807 32.266 20.0275C32.3525 19.9743 32.4275 19.9043 32.4866 19.8218C32.5458 19.7392 32.5879 19.6457 32.6104 19.5467C32.633 19.4477 32.6356 19.3451 32.6181 19.2451C32.6005 19.1451 32.5633 19.0495 32.5084 18.9641C31.6719 17.6044 30.3794 16.7274 29.0487 16.6312V16.6304ZM23.0438 14.561C22.9241 14.5626 22.8064 14.5923 22.7003 14.6477C22.5942 14.703 22.5025 14.7826 22.4328 14.8799C22.3631 14.9772 22.3172 15.0896 22.2989 15.2079C22.2805 15.3262 22.2903 15.4471 22.3273 15.561C22.5068 16.1415 22.6939 16.5754 22.7275 17.311C22.7369 17.5134 22.8262 17.7038 22.9759 17.8404C23.1256 17.9769 23.3234 18.0483 23.5258 18.039C23.7282 18.0297 23.9186 17.9404 24.0551 17.7907C24.1916 17.641 24.2631 17.4432 24.2538 17.2408C24.208 16.263 23.9352 15.5923 23.7871 15.1103C23.74 14.9502 23.6419 14.81 23.5077 14.711C23.3735 14.6119 23.2106 14.5595 23.0438 14.5618V14.561ZM41.0532 37.1034C40.9334 37.1019 40.8148 37.1285 40.7072 37.1813C39.2795 37.852 37.7296 38.1217 36.1537 38.072C36.0533 38.0688 35.9534 38.0855 35.8595 38.1209C35.7656 38.1564 35.6796 38.21 35.6064 38.2787C35.5333 38.3474 35.4744 38.4299 35.4331 38.5213C35.3917 38.6128 35.3689 38.7115 35.3657 38.8118C35.3625 38.9122 35.3792 39.0121 35.4146 39.106C35.4501 39.1999 35.5037 39.2859 35.5724 39.359C35.6411 39.4322 35.7236 39.4911 35.815 39.5324C35.9065 39.5737 36.0052 39.5966 36.1055 39.5998C37.8892 39.6563 39.6882 39.3477 41.3573 38.5624C41.5151 38.4906 41.6438 38.3672 41.7221 38.2125C41.8005 38.0578 41.824 37.8811 41.7886 37.7114C41.7532 37.5416 41.6611 37.3889 41.5275 37.2784C41.3939 37.168 41.2266 37.1062 41.0532 37.1034Z" fill="#262626"/>
<path d="M32.4091 37.4119C32.3024 37.4128 32.1971 37.436 32.0999 37.48C32.0028 37.5241 31.9159 37.588 31.845 37.6677C31.774 37.7473 31.7205 37.841 31.6879 37.9426C31.6554 38.0442 31.6445 38.1515 31.6559 38.2575C32.076 42.7843 34.5388 46.1645 38.0619 48.9061C38.7677 49.4546 39.7294 49.476 40.3627 49.0268C40.9891 48.5822 41.3038 47.7985 41.2427 46.9559C41.3076 45.1226 40.7805 43.0372 39.915 41.3184C39.4773 40.4514 38.9541 39.6791 38.3369 39.0902C37.7189 38.5004 36.9733 38.0727 36.1292 38.0711C35.9266 38.0706 35.7321 38.1506 35.5885 38.2935C35.4449 38.4364 35.3639 38.6305 35.3634 38.8331C35.3629 39.0357 35.4429 39.2302 35.5858 39.3738C35.7287 39.5174 35.9228 39.5984 36.1254 39.5989C36.4424 39.5989 36.8419 39.7746 37.2819 40.1947C37.7219 40.6141 38.1703 41.255 38.55 42.0082C39.3093 43.5146 39.7882 45.4732 39.7241 46.9574C39.7225 46.9898 39.723 47.0222 39.7256 47.0545C39.7592 47.4502 39.6003 47.6954 39.4781 47.7824C39.3559 47.8695 39.2856 47.9238 39.0007 47.7015C35.6778 45.1165 33.5541 42.174 33.1775 38.1162C33.1625 37.9233 33.0747 37.7433 32.9321 37.6126C32.7895 37.4819 32.6025 37.4101 32.4091 37.4119Z" fill="#262626"/>
<path d="M19.3168 29.6096C18.3161 29.4866 17.2948 29.7089 16.4957 30.2642C15.6967 30.8196 15.1398 31.8424 15.3766 32.9577C15.3975 33.0559 15.4375 33.149 15.4943 33.2317C15.5512 33.3144 15.6238 33.3851 15.7079 33.4397C15.7921 33.4944 15.8862 33.5319 15.9849 33.5502C16.0835 33.5685 16.1848 33.5672 16.283 33.5463C16.3811 33.5254 16.4742 33.4854 16.5569 33.4286C16.6396 33.3717 16.7103 33.2992 16.765 33.215C16.8196 33.1308 16.8572 33.0367 16.8755 32.9381C16.8938 32.8394 16.8924 32.7381 16.8716 32.6399C16.7593 32.1128 16.9365 31.8188 17.3666 31.5193C17.7966 31.2199 18.4994 31.048 19.1304 31.1251C20.0402 31.2374 21.5825 32.1381 23.1637 33.3053C24.745 34.4725 26.4026 35.8643 27.9014 36.8619C29.2151 37.7364 30.6443 38.4234 32.1478 38.9031C32.2439 38.9354 32.3455 38.9482 32.4467 38.9408C32.5478 38.9335 32.6464 38.9061 32.7369 38.8602C32.8273 38.8143 32.9077 38.7509 32.9733 38.6736C33.039 38.5963 33.0886 38.5067 33.1193 38.4101C33.1499 38.3134 33.1611 38.2116 33.152 38.1106C33.1429 38.0097 33.1139 37.9115 33.0664 37.8218C33.019 37.7322 32.9543 37.6529 32.8759 37.5886C32.7975 37.5242 32.7071 37.4761 32.61 37.4471C31.2432 37.0104 29.9439 36.3856 28.7493 35.5908C27.3651 34.6703 25.7044 33.2839 24.0705 32.0769C22.4365 30.87 20.869 29.8006 19.3168 29.6096Z" fill="#262626"/>
<path d="M40.97 17.3408C40.7928 17.2911 40.6053 17.2917 40.4284 17.3424C40.2482 17.3963 40.0943 17.5149 39.9961 17.6754C39.9541 17.7235 39.8601 17.7572 39.828 17.803C39.7157 17.9687 39.6454 18.1315 39.5836 18.3018C39.4613 18.6433 39.3796 19.0244 39.3154 19.4224C39.1871 20.2169 39.1344 21.0388 39.1573 21.5628C39.1917 22.3588 39.5805 22.9959 40.0106 23.4458C40.4414 23.8965 40.9143 24.212 41.2611 24.4924C41.6079 24.7712 41.7813 24.9927 41.8156 25.1187C41.8493 25.2394 41.8409 25.4495 41.4925 25.9376C39.6149 28.0399 37.586 28.8862 35.3868 29.1108C33.1761 29.3369 30.792 28.8977 28.4079 28.3317C26.023 27.7664 23.6488 27.0766 21.3984 26.8894C19.1472 26.7023 16.9465 27.056 15.2033 28.6517C15.0669 28.7769 14.9805 28.9474 14.9604 29.1315C14.5532 32.8715 16.5592 36.9651 19.7362 40.1872C22.9132 43.4093 27.3193 45.7881 31.96 45.8812C32.0603 45.8833 32.16 45.8655 32.2534 45.8289C32.3469 45.7924 32.4322 45.7378 32.5046 45.6683C32.5769 45.5988 32.6349 45.5157 32.6751 45.4238C32.7154 45.3319 32.7371 45.233 32.7391 45.1326C32.7411 45.0323 32.7234 44.9326 32.6868 44.8391C32.6503 44.7457 32.5957 44.6604 32.5262 44.588C32.4567 44.5157 32.3736 44.4577 32.2817 44.4175C32.1898 44.3772 32.0908 44.3555 31.9905 44.3535C27.8563 44.2717 23.7657 42.1 20.8232 39.1162C17.9846 36.2364 16.3147 32.6408 16.4966 29.6394C17.8127 28.5654 19.3634 28.2537 21.2709 28.4126C23.2952 28.5807 25.6227 29.2445 28.0542 29.8212C30.4834 30.398 33.0271 30.8907 35.5434 30.6325C38.0588 30.3751 40.5422 29.3217 42.6659 26.9269C42.6817 26.9097 42.6967 26.8919 42.7109 26.8734C43.251 26.137 43.4718 25.3792 43.2877 24.7139C43.1043 24.0493 42.6361 23.6406 42.2197 23.3045C41.8034 22.9684 41.3909 22.6819 41.1144 22.3924C40.8371 22.1029 40.6988 21.8638 40.6828 21.4972C40.6691 21.1763 40.7134 20.349 40.8234 19.6669C40.8417 19.5523 40.8692 19.4881 40.8906 19.3835C41.6384 20.2069 42.6582 20.5117 43.5161 20.6767C44.4747 20.8608 45.202 21.0235 45.5427 21.4177C45.8444 21.7676 45.9322 22.2213 45.9987 22.6911C46.0178 22.8252 46.0722 22.9517 46.1563 23.0578C46.2404 23.1639 46.3512 23.2458 46.4774 23.295C46.6035 23.3442 46.7405 23.359 46.8742 23.3378C47.008 23.3167 47.1337 23.2604 47.2385 23.1747C47.5624 22.9103 47.8725 22.588 48.1903 22.342C48.5081 22.096 48.7968 21.9769 48.932 21.9761C49.5355 22.0021 50.4293 22.2267 51.4712 22.1518C52.0693 22.1098 52.7079 21.8822 53.3412 21.517C53.3061 22.2412 53.2358 22.8882 53.0288 23.374C52.6781 24.199 52.0159 24.843 50.1596 25.3647C49.4713 25.5519 48.8984 25.6932 48.3759 25.9552C47.8511 26.218 47.3775 26.671 47.1445 27.276C47.1221 27.3355 47.1072 27.3976 47.1002 27.4608C46.7152 30.7379 45.4785 36.0301 41.6346 40.023C41.565 40.0953 41.5104 40.1806 41.4738 40.2741C41.4372 40.3675 41.4194 40.4673 41.4213 40.5676C41.4233 40.6679 41.445 40.7669 41.4852 40.8589C41.5254 40.9508 41.5833 41.0339 41.6556 41.1035C41.7279 41.1731 41.8133 41.2277 41.9067 41.2643C42.0002 41.3009 42.0999 41.3187 42.2002 41.3168C42.3006 41.3148 42.3995 41.2931 42.4915 41.2529C42.5834 41.2127 42.6666 41.1548 42.7361 41.0825C46.8711 36.7856 48.1636 31.2757 48.5891 27.8053C48.6884 27.5571 48.7724 27.4654 49.0588 27.3218C49.3568 27.1728 49.8701 27.0254 50.5675 26.8352C50.5693 26.8347 50.5711 26.8342 50.5729 26.8337C52.6843 26.2401 53.8943 25.2417 54.4343 23.9722C54.9744 22.7026 54.895 21.3406 54.9133 19.9006C54.9152 19.7426 54.8681 19.5878 54.7783 19.4576C54.6886 19.3275 54.5607 19.2284 54.4123 19.174C54.2639 19.1196 54.1022 19.1126 53.9497 19.154C53.7971 19.1953 53.6611 19.283 53.5604 19.4049C52.7744 20.3567 52.1014 20.5759 51.3627 20.6286C50.6241 20.6821 49.825 20.4804 48.9664 20.4483C48.958 20.4477 48.9496 20.4472 48.9412 20.4468C48.2308 20.4437 47.6884 20.7997 47.2568 21.1343C47.2079 21.1725 47.1927 21.1931 47.1461 21.2313C47.0315 20.9594 46.9261 20.6836 46.6984 20.4201C45.8887 19.4812 44.7253 19.3537 43.8041 19.1772C42.8904 19.0015 42.2381 18.8197 41.8714 18.2987C41.6911 17.8748 41.5338 17.5066 40.97 17.3416V17.3408Z" fill="#262626"/>
<path d="M22.0202 40.4707C21.9072 40.4756 21.7968 40.5054 21.6967 40.5582C21.5967 40.6109 21.5097 40.6852 21.4418 40.7757C21.374 40.8662 21.3271 40.9706 21.3046 41.0814C21.282 41.1922 21.2843 41.3066 21.3113 41.4164C21.8124 43.5751 22.8108 45.6162 24.1117 47.5863C24.6052 48.3319 25.5081 48.6611 26.2529 48.438C26.9862 48.218 27.5362 47.5787 27.7494 46.7636C28.0312 46.015 28.1962 45.1953 28.2688 44.3528C28.2862 44.1508 28.2227 43.9501 28.0922 43.795C27.9617 43.6398 27.7749 43.5429 27.5729 43.5255C27.3709 43.508 27.1703 43.5716 27.0151 43.7021C26.86 43.8326 26.763 44.0194 26.7456 44.2214C26.6807 44.9776 26.5363 45.6888 26.311 46.2717C26.2991 46.3016 26.2892 46.3322 26.2812 46.3633C26.1857 46.7498 25.958 46.9309 25.8144 46.9744C25.6708 47.018 25.5868 47.0455 25.3874 46.7445C24.156 44.8806 23.247 42.9992 22.7994 41.0703C22.7609 40.8947 22.6616 40.7382 22.5191 40.6285C22.3765 40.5188 22.1999 40.4629 22.0202 40.4707Z" fill="#262626"/>
<circle cx="32" cy="32" r="30" stroke="#262626" stroke-width="4"/>
<path d="M99.048 20.096C102.672 20.096 105.096 17.72 105.096 14.168C105.096 10.616 102.672 8.24 99.048 8.24H91.848V26H95.736V20.096H99.048ZM98.184 11.696C100.056 11.696 100.992 12.512 100.992 14.168C100.992 15.824 100.056 16.64 98.184 16.64H95.736V11.696H98.184ZM108.919 12.128C110.071 12.128 111.007 11.192 111.007 10.016C111.007 8.84 110.071 7.928 108.919 7.928C107.743 7.928 106.807 8.84 106.807 10.016C106.807 11.192 107.743 12.128 108.919 12.128ZM107.095 26H110.791V14H107.095V26ZM112.7 22.208C112.7 24.632 114.692 26.312 117.86 26.312C120.98 26.312 123.164 24.752 123.164 22.184C123.164 20.264 122.084 19.352 120.116 18.92L117.884 18.44C117.044 18.248 116.588 17.936 116.588 17.384C116.588 16.736 117.116 16.304 117.956 16.304C118.844 16.304 119.348 16.856 119.348 17.672H122.852C122.852 15.248 120.908 13.616 118.124 13.616C115.244 13.616 113.108 15.056 113.108 17.552C113.108 19.664 114.188 20.624 116.396 21.104L118.604 21.584C119.492 21.776 119.684 22.16 119.684 22.52C119.684 23.144 119.156 23.552 118.004 23.552C116.876 23.552 116.252 23.048 116.204 22.208H112.7ZM124.447 19.952C124.447 23.792 126.895 26.312 130.687 26.312C134.047 26.312 136.495 24.248 136.735 21.224H133.015C132.775 22.4 131.983 23 130.687 23C129.103 23 128.167 21.872 128.167 19.952C128.167 18.104 129.175 16.928 130.735 16.928C132.007 16.928 132.751 17.504 133.015 18.704H136.735C136.495 15.56 134.143 13.616 130.591 13.616C126.991 13.616 124.447 16.256 124.447 19.952ZM140.583 12.128C141.735 12.128 142.671 11.192 142.671 10.016C142.671 8.84 141.735 7.928 140.583 7.928C139.407 7.928 138.471 8.84 138.471 10.016C138.471 11.192 139.407 12.128 140.583 12.128ZM138.759 26H142.455V14H138.759V26ZM144.364 22.208C144.364 24.632 146.356 26.312 149.524 26.312C152.644 26.312 154.828 24.752 154.828 22.184C154.828 20.264 153.748 19.352 151.78 18.92L149.548 18.44C148.708 18.248 148.252 17.936 148.252 17.384C148.252 16.736 148.78 16.304 149.62 16.304C150.508 16.304 151.012 16.856 151.012 17.672H154.516C154.516 15.248 152.572 13.616 149.788 13.616C146.908 13.616 144.772 15.056 144.772 17.552C144.772 19.664 145.852 20.624 148.06 21.104L150.268 21.584C151.156 21.776 151.348 22.16 151.348 22.52C151.348 23.144 150.82 23.552 149.668 23.552C148.54 23.552 147.916 23.048 147.868 22.208H144.364ZM94.272 54L95.544 50.256H101.28L102.528 54H106.656L100.344 36.24H96.552L90.216 54H94.272ZM97.944 43.2C98.16 42.552 98.352 41.88 98.424 41.472C98.496 41.904 98.712 42.6 98.904 43.2L100.176 46.992H96.672L97.944 43.2ZM107.01 47.808C107.01 51.6 109.074 54.336 112.65 54.336C114.306 54.336 115.842 53.712 116.538 52.8V59.76H120.234V42H116.754L116.562 43.464C115.89 42.36 114.378 41.616 112.674 41.616C109.338 41.616 107.01 43.944 107.01 47.808ZM110.73 48C110.73 46.224 111.834 45 113.586 45C115.314 45 116.514 46.2 116.514 48C116.514 49.8 115.314 51 113.586 51C111.834 51 110.73 49.776 110.73 48ZM130.977 42V48.24C130.977 50.208 130.329 51.024 128.745 51.024C127.233 51.024 126.561 50.16 126.561 48.192V42H122.865V49.536C122.865 52.488 124.545 54.312 127.281 54.312C128.721 54.312 130.209 53.64 130.953 52.656L131.193 54H134.673V42H130.977ZM141.071 54.312C142.871 54.312 144.455 53.52 144.839 52.416L145.079 54H148.343V46.992C148.343 43.56 146.375 41.616 142.895 41.616C139.463 41.616 137.231 43.392 137.231 46.104H140.303C140.303 45.024 141.143 44.424 142.703 44.424C144.023 44.424 144.743 45.048 144.743 46.224V46.416L141.383 46.68C138.503 46.896 136.943 48.264 136.943 50.472C136.943 52.824 138.527 54.312 141.071 54.312ZM142.367 51.576C141.239 51.576 140.711 51.168 140.711 50.304C140.711 49.536 141.287 49.176 142.895 49.032L144.767 48.864V49.512C144.767 50.88 143.783 51.576 142.367 51.576ZM159.25 42C158.746 41.88 158.266 41.832 157.834 41.832C156.226 41.832 155.17 42.624 154.666 43.8L154.474 42.024H150.994V54H154.69V48.792C154.69 46.416 155.962 45.48 158.074 45.48H159.25V42ZM162.943 40.128C164.095 40.128 165.031 39.192 165.031 38.016C165.031 36.84 164.095 35.928 162.943 35.928C161.767 35.928 160.831 36.84 160.831 38.016C160.831 39.192 161.767 40.128 162.943 40.128ZM161.119 54H164.815V42H161.119V54ZM174.829 42V48.24C174.829 50.208 174.181 51.024 172.597 51.024C171.085 51.024 170.413 50.16 170.413 48.192V42H166.717V49.536C166.717 52.488 168.397 54.312 171.133 54.312C172.573 54.312 174.061 53.64 174.805 52.656L175.045 54H178.525V42H174.829ZM184.994 54V47.568C184.994 45.552 186.074 44.976 187.13 44.976C188.306 44.976 189.074 45.696 189.074 47.184V54H192.77V47.568C192.77 45.528 193.826 44.952 194.882 44.952C196.058 44.952 196.85 45.672 196.85 47.184V54H200.546V46.152C200.546 43.416 199.01 41.616 195.914 41.616C194.186 41.616 192.77 42.456 192.146 43.728C191.45 42.456 190.298 41.616 188.498 41.616C186.77 41.616 185.594 42.408 184.994 43.248L184.754 42H181.298V54H184.994Z" fill="#262626"/>
</svg>
