<svg width="1920" height="613" viewBox="0 0 1920 613" fill="none" xmlns="http://www.w3.org/2000/svg">
<path d="M3 452.438C784.445 338.362 560.155 534.492 977.639 532.991C1311.63 531.791 1568.78 420.143 1655.1 362.271C1725.1 321.41 1967.57 238.188 1990 307.842" stroke="#1504B9" stroke-opacity="0.25"/>
<path d="M-4 535.972C655.949 523.475 467.947 539.471 928.247 600.958C1388.55 662.445 1600.4 448.991 1952 407" stroke="#1504B9" stroke-opacity="0.25"/>
<path d="M-101 407.764C673.5 425.264 564.5 564.764 1016 486.264C1467.5 407.764 1544.5 275.764 1771 253.264C1952.2 235.264 2013.5 296.097 2021.5 328.764" stroke="#1504B9" stroke-opacity="0.25"/>
<circle cx="252.5" cy="349.5" r="10" stroke="#1504B9" stroke-opacity="0.25"/>
<circle cx="218.5" cy="289.5" r="18" stroke="#1504B9" stroke-opacity="0.25"/>
<circle cx="280.5" cy="245.5" r="25" stroke="#1504B9" stroke-opacity="0.25"/>
<circle cx="1633.5" cy="10.5" r="10" stroke="#1504B9" stroke-opacity="0.25"/>
<circle cx="1676.5" cy="122.5" r="18" stroke="#1504B9" stroke-opacity="0.25"/>
<circle cx="1694.5" cy="46.5" r="25" stroke="#1504B9" stroke-opacity="0.25"/>
</svg>
