<svg width="210" height="54" viewBox="0 0 210 54" fill="none" xmlns="http://www.w3.org/2000/svg">
<path d="M3.13953 20.1034C17.1714 20.1034 27.6938 3.27554 27.6938 3.27554C27.6938 3.27554 38.2163 20.1034 52.2481 20.1034C66.2743 20.1034 80.3062 3.27554 80.3062 3.27554C80.3062 3.27554 94.338 20.1034 104.86 20.1034" stroke="#262626" stroke-width="4" stroke-linecap="round" stroke-linejoin="round"/>
<path d="M3.13953 50.9547C17.1714 50.9547 27.6938 34.1267 27.6938 34.1267C27.6938 34.1267 38.2163 50.9547 52.2481 50.9547C66.2743 50.9547 80.3062 34.1267 80.3062 34.1267C80.3062 34.1267 94.338 50.9547 104.86 50.9547" stroke="#262626" stroke-width="4" stroke-linecap="round" stroke-linejoin="round"/>
<path d="M105.14 20.1034C119.171 20.1034 129.694 3.27554 129.694 3.27554C129.694 3.27554 140.216 20.1034 154.248 20.1034C168.274 20.1034 182.306 3.27554 182.306 3.27554C182.306 3.27554 196.338 20.1034 206.86 20.1034" stroke="#262626" stroke-width="4" stroke-linecap="round" stroke-linejoin="round"/>
<path d="M105.14 50.9547C119.171 50.9547 129.694 34.1267 129.694 34.1267C129.694 34.1267 140.216 50.9547 154.248 50.9547C168.274 50.9547 182.306 34.1267 182.306 34.1267C182.306 34.1267 196.338 50.9547 206.86 50.9547" stroke="#262626" stroke-width="4" stroke-linecap="round" stroke-linejoin="round"/>
</svg>
