<svg width="225" height="225" viewBox="0 0 225 225" fill="none" xmlns="http://www.w3.org/2000/svg">
<path d="M112.135 61.7103C112.135 75.0837 106.822 87.9095 97.3656 97.366C87.9091 106.822 75.0834 112.135 61.7099 112.135C48.3364 112.135 35.5107 106.822 26.0542 97.366C16.5977 87.9095 11.2852 75.0837 11.2852 61.7103C11.2852 48.3368 16.5977 35.5111 26.0542 26.0546C35.5107 16.5981 48.3364 11.2855 61.7099 11.2855C75.0834 11.2855 87.9091 16.5981 97.3656 26.0546C106.822 35.5111 112.135 48.3368 112.135 61.7103ZM67.3127 39.2993C67.3127 37.8133 66.7224 36.3883 65.6717 35.3375C64.6209 34.2868 63.1958 33.6965 61.7099 33.6965C60.224 33.6965 58.7989 34.2868 57.7482 35.3375C56.6974 36.3883 56.1072 37.8133 56.1072 39.2993V56.1075H39.2989C37.813 56.1075 36.3879 56.6978 35.3372 57.7485C34.2864 58.7993 33.6962 60.2243 33.6962 61.7103C33.6962 63.1962 34.2864 64.6213 35.3372 65.672C36.3879 66.7227 37.813 67.313 39.2989 67.313H56.1072V84.1213C56.1072 85.6072 56.6974 87.0323 57.7482 88.083C58.7989 89.1337 60.224 89.724 61.7099 89.724C63.1958 89.724 64.6209 89.1337 65.6717 88.083C66.7224 87.0323 67.3127 85.6072 67.3127 84.1213V67.313H84.1209C85.6069 67.313 87.0319 66.7227 88.0826 65.672C89.1334 64.6213 89.7237 63.1962 89.7237 61.7103C89.7237 60.2243 89.1334 58.7993 88.0826 57.7485C87.0319 56.6978 85.6069 56.1075 84.1209 56.1075H67.3127V39.2993ZM61.7099 123.341C72.259 123.342 82.6321 120.637 91.8361 115.482C101.04 110.327 108.767 102.896 114.277 93.9005C119.787 84.9047 122.895 74.6451 123.305 64.104C123.715 53.5628 121.412 43.0929 116.617 33.6965H156.957C165.872 33.6965 174.423 37.2383 180.727 43.5426C187.031 49.8469 190.573 58.3974 190.573 67.313V156.957C190.573 164.241 188.265 170.964 184.332 176.477L123.934 116.998C120.79 113.902 116.553 112.166 112.14 112.166C107.727 112.166 103.491 113.902 100.346 116.998L39.9488 176.477C35.8739 170.785 33.687 163.958 33.6962 156.957V116.617C42.1003 120.92 51.625 123.341 61.7099 123.341ZM140.148 89.724C141.634 89.724 143.059 89.1337 144.11 88.083C145.161 87.0323 145.751 85.6072 145.751 84.1213C145.751 82.6353 145.161 81.2102 144.11 80.1595C143.059 79.1088 141.634 78.5185 140.148 78.5185C138.662 78.5185 137.237 79.1088 136.187 80.1595C135.136 81.2102 134.546 82.6353 134.546 84.1213C134.546 85.6072 135.136 87.0323 136.187 88.083C137.237 89.1337 138.662 89.724 140.148 89.724ZM140.148 100.93C144.606 100.93 148.881 99.1587 152.034 96.0065C155.186 92.8543 156.957 88.5791 156.957 84.1213C156.957 79.6634 155.186 75.3882 152.034 72.236C148.881 69.0839 144.606 67.313 140.148 67.313C135.691 67.313 131.415 69.0839 128.263 72.236C125.111 75.3882 123.34 79.6634 123.34 84.1213C123.34 88.5791 125.111 92.8543 128.263 96.0065C131.415 99.1587 135.691 100.93 140.148 100.93ZM47.8711 184.388C53.3618 188.288 60.0739 190.574 67.3127 190.574H156.957C164.195 190.574 170.908 188.288 176.398 184.388L116.068 124.999C115.019 123.966 113.607 123.386 112.135 123.386C110.663 123.386 109.25 123.966 108.202 124.999L47.8711 184.388Z" fill="#F7FFF7"/>
</svg>
