<svg width="58" height="57" viewBox="0 0 58 57" fill="none" xmlns="http://www.w3.org/2000/svg">
<path d="M28.5 18.9969C23.2674 18.9969 18.9972 23.2672 18.9972 28.4998C18.9972 33.7324 23.2674 38.0026 28.5 38.0026C33.7326 38.0026 38.0028 33.7324 38.0028 28.4998C38.0028 23.2672 33.7326 18.9969 28.5 18.9969ZM57.0014 28.4998C57.0014 24.5646 57.037 20.6651 56.816 16.7371C56.595 12.1746 55.5542 8.12536 52.2179 4.78903C48.8744 1.44558 44.8323 0.411886 40.2698 0.19089C36.3347 -0.0301062 32.4352 0.00553842 28.5071 0.00553842C24.572 0.00553842 20.6725 -0.0301062 16.7444 0.19089C12.1819 0.411886 8.13272 1.45271 4.79639 4.78903C1.45293 8.13249 0.419241 12.1746 0.198245 16.7371C-0.0227515 20.6722 0.0128932 24.5718 0.0128932 28.4998C0.0128932 32.4278 -0.0227515 36.3344 0.198245 40.2625C0.419241 44.825 1.46006 48.8742 4.79639 52.2105C8.13985 55.554 12.1819 56.5877 16.7444 56.8087C20.6796 57.0297 24.5791 56.994 28.5071 56.994C32.4423 56.994 36.3418 57.0297 40.2698 56.8087C44.8323 56.5877 48.8815 55.5469 52.2179 52.2105C55.5613 48.8671 56.595 44.825 56.816 40.2625C57.0441 36.3344 57.0014 32.4349 57.0014 28.4998ZM28.5 43.1212C20.4087 43.1212 13.8786 36.5911 13.8786 28.4998C13.8786 20.4085 20.4087 13.8784 28.5 13.8784C36.5913 13.8784 43.1214 20.4085 43.1214 28.4998C43.1214 36.5911 36.5913 43.1212 28.5 43.1212ZM43.7202 16.6943C41.8311 16.6943 40.3055 15.1687 40.3055 13.2796C40.3055 11.3904 41.8311 9.86482 43.7202 9.86482C45.6094 9.86482 47.135 11.3904 47.135 13.2796C47.1355 13.7282 47.0476 14.1724 46.8762 14.587C46.7048 15.0015 46.4533 15.3782 46.1361 15.6954C45.8189 16.0126 45.4422 16.2641 45.0277 16.4355C44.6131 16.6069 44.1688 16.6949 43.7202 16.6943Z" fill="white"/>
</svg>
